<?xml version="1.0" encoding="UTF-8"?>
<svg xmlns="http://www.w3.org/2000/svg" xmlns:xlink="http://www.w3.org/1999/xlink" width="140px" height="46px" viewBox="0 0 140 46" version="1.1">
<g id="surface1">
<path style=" stroke:none;fill-rule:nonzero;fill:rgb(54.901961%,14.509804%,56.078431%);fill-opacity:1;" d="M 18.917969 1.378906 L 20.289062 1.378906 L 21.816406 1.992188 L 23.800781 3.21875 L 26.238281 4.601562 L 29.902344 6.746094 L 33.105469 8.585938 L 36.765625 10.734375 L 38.90625 11.960938 L 42.566406 14.105469 L 43.480469 14.875 L 44.246094 16.40625 L 44.089844 17.785156 L 43.175781 19.777344 L 41.191406 23.15625 L 40.277344 24.839844 L 39.359375 26.375 L 39.210938 26.832031 L 42.566406 26.066406 L 45.003906 24.992188 L 45.921875 24.074219 L 45.769531 22.847656 L 44.394531 21.929688 L 43.632812 21.46875 L 43.328125 20.699219 L 43.9375 19.933594 L 45.308594 20.085938 L 46.839844 21.003906 L 47.753906 22.078125 L 48.210938 23.15625 L 48.058594 24.53125 L 46.988281 25.914062 L 45.617188 26.988281 L 43.480469 27.90625 L 41.191406 28.519531 L 39.054688 28.976562 L 35.394531 29.59375 L 32.34375 29.746094 L 32.496094 30.820312 L 34.175781 30.972656 L 36.460938 30.820312 L 36.460938 31.433594 L 34.328125 35.113281 L 32.800781 37.875 L 31.121094 40.632812 L 31.277344 40.785156 L 37.070312 40.941406 L 37.835938 41.554688 L 37.835938 42.472656 L 37.070312 43.242188 L 19.070312 43.242188 L 18.460938 42.320312 L 18.609375 41.554688 L 19.070312 40.941406 L 25.933594 40.785156 L 25.324219 40.171875 L 22.578125 38.640625 L 18.917969 36.492188 L 16.171875 34.960938 L 9.613281 31.128906 L 7.167969 29.746094 L 4.882812 28.214844 L 4.273438 26.679688 L 4.273438 25.605469 L 4.882812 25.453125 L 5.949219 25.914062 L 8.390625 26.375 L 10.066406 26.527344 L 12.050781 26.527344 L 12.511719 26.066406 L 12.664062 25.605469 L 6.253906 24.378906 L 3.96875 23.613281 L 1.984375 22.542969 L 1.070312 21.773438 L 0.460938 20.546875 L 0.460938 18.859375 L 1.070312 17.632812 L 2.441406 16.40625 L 4.578125 15.332031 L 7.019531 14.71875 L 7.933594 14.71875 L 8.238281 15.179688 L 8.085938 16.253906 L 7.324219 16.714844 L 5.035156 17.328125 L 3.355469 18.246094 L 2.441406 19.167969 L 2.289062 19.933594 L 3.050781 20.855469 L 5.949219 22.234375 L 7.476562 19.320312 L 9.308594 16.253906 L 10.527344 14.261719 L 11.441406 12.574219 L 13.425781 9.046875 L 15.5625 5.367188 L 16.78125 3.21875 L 17.695312 1.992188 Z M 25.933594 13.644531 L 21.816406 14.414062 L 19.53125 15.179688 L 18.15625 16.253906 L 16.933594 17.632812 L 16.324219 18.707031 L 16.019531 19.933594 L 16.019531 22.234375 L 16.628906 23.613281 L 17.695312 24.839844 L 18.609375 25.453125 L 19.679688 25.605469 L 20.140625 25.605469 L 17.085938 28.671875 L 17.851562 29.59375 L 20.289062 30.972656 L 20.898438 31.433594 L 21.359375 31.433594 L 21.96875 29.902344 L 22.425781 27.445312 L 23.039062 27.445312 L 23.34375 28.058594 L 23.800781 28.519531 L 25.628906 29.132812 L 27.15625 29.132812 L 29.136719 28.367188 L 29.902344 27.753906 L 31.121094 26.21875 L 31.582031 25.144531 L 31.886719 23.460938 L 31.886719 22.234375 L 31.425781 19.628906 L 29.445312 14.875 L 28.527344 13.644531 Z M 25.933594 13.644531 "/>
<path style=" stroke:none;fill-rule:nonzero;fill:rgb(81.176471%,21.568627%,99.607843%);fill-opacity:1;" d="M 96.117188 17.171875 L 98.25 17.171875 L 99.472656 17.632812 L 100.386719 18.402344 L 100.082031 19.167969 L 99.167969 18.859375 L 97.640625 18.402344 L 96.265625 18.402344 L 95.351562 18.859375 L 95.046875 19.472656 L 95.203125 20.699219 L 95.65625 21.160156 L 98.097656 21.929688 L 99.625 22.542969 L 100.386719 23 L 100.996094 24.074219 L 100.996094 25.144531 L 100.539062 26.066406 L 99.472656 26.988281 L 98.707031 27.292969 L 96.265625 27.292969 L 94.4375 26.832031 L 93.671875 26.375 L 93.367188 26.066406 L 93.367188 25.300781 L 94.132812 25.453125 L 95.351562 26.066406 L 96.421875 26.375 L 98.554688 26.375 L 99.320312 26.066406 L 99.625 25.300781 L 99.625 24.378906 L 98.863281 23.460938 L 96.574219 22.847656 L 94.742188 22.234375 L 93.671875 21.003906 L 93.523438 19.777344 L 94.132812 18.554688 L 95.203125 17.632812 Z M 96.117188 17.171875 "/>
<path style=" stroke:none;fill-rule:nonzero;fill:rgb(81.176471%,21.568627%,99.607843%);fill-opacity:1;" d="M 106.644531 17.171875 L 110.148438 17.171875 L 111.679688 17.476562 L 113.046875 18.707031 L 113.507812 19.933594 L 113.507812 21.160156 L 112.742188 22.691406 L 111.984375 23.304688 L 110.761719 23.613281 L 107.558594 23.613281 L 107.40625 27.140625 L 106.644531 27.140625 L 106.488281 26.988281 L 106.488281 22.847656 L 106.644531 22.691406 L 110.457031 22.691406 L 111.523438 22.386719 L 112.132812 21.617188 L 112.289062 21.003906 L 112.289062 19.777344 L 111.828125 19.015625 L 111.523438 18.707031 L 110.914062 18.554688 L 107.558594 18.402344 L 107.40625 21.003906 L 106.644531 21.160156 L 106.488281 21.003906 L 106.488281 17.328125 Z M 106.644531 17.171875 "/>
<path style=" stroke:none;fill-rule:nonzero;fill:rgb(99.215686%,21.960784%,99.607843%);fill-opacity:1;" d="M 72.46875 17.171875 L 73.230469 17.328125 L 75.367188 19.933594 L 76.742188 21.773438 L 78.570312 24.074219 L 79.332031 24.992188 L 79.792969 25.144531 L 79.636719 17.632812 L 79.945312 17.171875 L 80.554688 17.171875 L 80.554688 27.140625 L 80.097656 27.292969 L 78.875 26.21875 L 77.046875 24.074219 L 75.519531 22.078125 L 73.6875 19.777344 L 72.316406 17.941406 Z M 72.46875 17.171875 "/>
<path style=" stroke:none;fill-rule:nonzero;fill:rgb(99.607843%,21.960784%,99.607843%);fill-opacity:1;" d="M 65.449219 17.019531 L 66.058594 17.328125 L 66.058594 27.140625 L 64.992188 27.140625 L 64.839844 26.988281 L 64.6875 19.933594 L 64.074219 20.699219 L 61.941406 24.53125 L 61.484375 25.300781 L 60.71875 25.453125 L 60.566406 24.992188 L 62.550781 21.3125 L 64.535156 17.941406 Z M 65.449219 17.019531 "/>
<path style=" stroke:none;fill-rule:nonzero;fill:rgb(55.294118%,14.509804%,56.470588%);fill-opacity:1;" d="M 9.917969 40.941406 L 16.171875 40.941406 L 16.933594 41.554688 L 17.085938 42.320312 L 16.476562 43.085938 L 16.171875 43.242188 L 9.613281 43.242188 L 9.003906 42.628906 L 9.152344 41.707031 Z M 9.917969 40.941406 "/>
<path style=" stroke:none;fill-rule:nonzero;fill:rgb(98.823529%,21.568627%,99.215686%);fill-opacity:1;" d="M 56.445312 17.019531 L 57.210938 17.328125 L 58.125 18.707031 L 59.652344 21.46875 L 60.109375 22.386719 L 59.957031 23.15625 L 59.347656 23.15625 L 58.125 20.699219 L 57.515625 19.777344 L 57.210938 19.628906 L 57.210938 27.140625 L 56.296875 27.140625 L 56.140625 26.832031 L 56.140625 19.628906 L 56.296875 17.171875 Z M 56.445312 17.019531 "/>
<path style=" stroke:none;fill-rule:nonzero;fill:rgb(99.607843%,21.960784%,99.607843%);fill-opacity:1;" d="M 68.652344 17.171875 L 69.722656 17.171875 L 69.875 17.328125 L 69.875 27.140625 L 68.652344 27.140625 L 68.503906 26.832031 L 68.503906 17.328125 Z M 68.652344 17.171875 "/>
<path style=" stroke:none;fill-rule:nonzero;fill:rgb(97.254902%,21.568627%,99.607843%);fill-opacity:1;" d="M 90.625 17.171875 L 91.539062 17.171875 L 91.691406 21.46875 L 91.539062 24.074219 L 90.929688 25.605469 L 90.164062 26.527344 L 89.097656 27.140625 L 88.027344 27.292969 L 88.027344 26.679688 L 89.554688 25.605469 L 90.164062 24.226562 L 90.320312 23 L 90.320312 17.476562 Z M 90.625 17.171875 "/>
<path style=" stroke:none;fill-rule:nonzero;fill:rgb(97.254902%,21.568627%,99.215686%);fill-opacity:1;" d="M 83.605469 17.171875 L 84.214844 17.328125 L 84.371094 23.765625 L 84.824219 24.992188 L 85.433594 25.761719 L 86.65625 26.679688 L 86.808594 27.140625 L 86.199219 27.292969 L 84.824219 26.679688 L 83.757812 25.453125 L 83.300781 23.765625 L 83.144531 22.847656 L 83.144531 17.476562 Z M 83.605469 17.171875 "/>
<path style=" stroke:none;fill-rule:nonzero;fill:rgb(61.176471%,16.078431%,65.882353%);fill-opacity:1;" d="M 139.292969 16.867188 L 139.746094 17.019531 L 139.746094 17.785156 L 138.222656 20.242188 L 136.394531 23.304688 L 136.238281 23.765625 L 136.085938 27.140625 L 135.171875 27.140625 L 135.019531 26.988281 L 134.867188 24.53125 L 135.171875 23.613281 L 136.238281 21.46875 L 137.15625 20.085938 L 138.070312 18.402344 L 138.988281 17.019531 Z M 139.292969 16.867188 "/>
<path style=" stroke:none;fill-rule:nonzero;fill:rgb(80.784314%,21.568627%,98.823529%);fill-opacity:1;" d="M 128 19.015625 L 128.765625 19.777344 L 130.75 24.839844 L 131.507812 26.679688 L 131.507812 27.292969 L 130.59375 27.140625 L 129.984375 25.914062 L 129.375 24.53125 L 126.324219 24.53125 L 126.171875 23.917969 L 126.476562 23.613281 L 128.914062 23.613281 L 128 20.390625 Z M 128 19.015625 "/>
<path style=" stroke:none;fill-rule:nonzero;fill:rgb(60.392157%,15.686275%,64.313725%);fill-opacity:1;" d="M 127.085938 17.019531 L 127.542969 17.171875 L 127.390625 18.246094 L 126.476562 20.390625 L 124.035156 26.679688 L 123.574219 27.292969 L 122.816406 27.140625 L 122.964844 26.375 L 124.644531 22.234375 L 126.476562 17.785156 Z M 127.085938 17.019531 "/>
<path style=" stroke:none;fill-rule:nonzero;fill:rgb(81.568627%,21.568627%,99.607843%);fill-opacity:1;" d="M 115.339844 17.171875 L 116.253906 17.171875 L 116.40625 17.328125 L 116.40625 24.839844 L 115.339844 24.839844 Z M 115.339844 17.171875 "/>
<path style=" stroke:none;fill-rule:nonzero;fill:rgb(99.215686%,21.568627%,99.607843%);fill-opacity:1;" d="M 72.316406 20.390625 L 73.078125 21.160156 L 73.535156 21.773438 L 73.535156 27.140625 L 72.46875 27.140625 L 72.316406 26.988281 Z M 72.316406 20.390625 "/>
<path style=" stroke:none;fill-rule:nonzero;fill:rgb(84.313725%,21.568627%,99.607843%);fill-opacity:1;" d="M 100.847656 24.074219 L 100.996094 24.074219 L 100.996094 25.144531 L 100.539062 26.066406 L 99.472656 26.988281 L 98.707031 27.292969 L 96.265625 27.292969 L 94.4375 26.832031 L 93.671875 26.375 L 93.367188 26.066406 L 93.367188 25.300781 L 94.132812 25.453125 L 95.351562 26.066406 L 96.421875 26.375 L 98.554688 26.375 L 99.320312 26.066406 L 99.777344 24.53125 L 100.386719 25.144531 L 100.539062 24.6875 L 100.691406 24.839844 Z M 100.847656 24.074219 "/>
<path style=" stroke:none;fill-rule:nonzero;fill:rgb(76.078431%,20.392157%,92.156863%);fill-opacity:1;" d="M 131.359375 16.867188 L 132.273438 17.171875 L 133.34375 18.707031 L 134.714844 21.160156 L 134.5625 21.929688 L 133.953125 22.078125 L 131.96875 18.554688 L 131.359375 17.328125 Z M 131.359375 16.867188 "/>
<path style=" stroke:none;fill-rule:nonzero;fill:rgb(74.117647%,20.392157%,87.843137%);fill-opacity:1;" d="M 115.492188 26.375 L 121.902344 26.527344 L 122.050781 27.140625 L 121.902344 27.292969 L 115.492188 27.292969 L 115.339844 26.527344 Z M 115.492188 26.375 "/>
<path style=" stroke:none;fill-rule:nonzero;fill:rgb(98.431373%,21.568627%,99.607843%);fill-opacity:1;" d="M 100.847656 24.074219 L 100.996094 24.074219 L 100.996094 25.144531 L 100.539062 26.066406 L 99.472656 26.988281 L 98.863281 27.140625 L 98.863281 26.21875 L 99.320312 26.066406 L 99.777344 24.53125 L 100.386719 25.144531 L 100.539062 24.6875 L 100.691406 24.839844 Z M 100.847656 24.074219 "/>
<path style=" stroke:none;fill-rule:nonzero;fill:rgb(84.313725%,21.176471%,98.431373%);fill-opacity:1;" d="M 127.085938 17.019531 L 127.542969 17.171875 L 127.390625 18.246094 L 126.78125 19.628906 L 126.476562 19.015625 L 126.019531 20.242188 L 125.558594 20.699219 L 125.40625 20.390625 L 126.628906 17.476562 Z M 127.085938 17.019531 "/>
<path style=" stroke:none;fill-rule:nonzero;fill:rgb(84.313725%,22.745098%,98.823529%);fill-opacity:1;" d="M 115.492188 26.375 L 117.015625 26.527344 L 116.863281 26.832031 L 117.015625 27.140625 L 117.777344 27.140625 L 117.777344 27.292969 L 115.492188 27.292969 L 115.339844 26.527344 Z M 115.492188 26.375 "/>
<path style=" stroke:none;fill-rule:nonzero;fill:rgb(83.529412%,21.568627%,99.607843%);fill-opacity:1;" d="M 131.359375 16.867188 L 132.273438 17.171875 L 132.730469 17.785156 L 132.578125 18.246094 L 132.578125 17.941406 L 132.121094 17.941406 L 131.96875 18.554688 L 131.359375 17.328125 Z M 131.359375 16.867188 "/>
<path style=" stroke:none;fill-rule:nonzero;fill:rgb(60%,15.686275%,63.529412%);fill-opacity:1;" d="M 133.648438 19.933594 L 134.101562 20.085938 L 134.714844 21.160156 L 134.714844 21.617188 L 133.953125 21.46875 L 133.34375 20.242188 L 133.648438 20.242188 Z M 133.648438 19.933594 "/>
<path style=" stroke:none;fill-rule:nonzero;fill:rgb(78.039216%,20.392157%,92.941176%);fill-opacity:1;" d="M 139.292969 16.867188 L 139.746094 17.019531 L 139.746094 17.785156 L 139.136719 18.402344 L 138.988281 17.632812 L 138.683594 17.632812 L 138.988281 17.019531 Z M 139.292969 16.867188 "/>
<path style=" stroke:none;fill-rule:nonzero;fill:rgb(88.235294%,25.882353%,99.607843%);fill-opacity:1;" d="M 133.035156 20.242188 L 133.796875 20.546875 L 133.953125 21.46875 L 134.714844 21.617188 L 134.257812 22.078125 L 133.796875 21.929688 L 133.035156 20.546875 Z M 133.035156 20.242188 "/>
<path style=" stroke:none;fill-rule:nonzero;fill:rgb(80.392157%,21.568627%,99.607843%);fill-opacity:1;" d="M 126.324219 18.707031 L 126.476562 19.015625 L 126.019531 20.242188 L 125.558594 20.699219 L 125.40625 20.390625 L 126.019531 18.859375 Z M 126.324219 18.707031 "/>
</g>
</svg>
